HIERARCHY
ROOT Bone
{
	OFFSET 0.000000 0.000000 0.000000
	CHANNELS 6 Xposition Zposition Yposition Xrotation Yrotation Zrotation
	End Site
	{
		OFFSET 0.000000 0.000000 1.000000
	}
}
MOTION
Frames: 15
Frame Time: 0.041667
0.000000 0.000000 -0.405666 -0.000000 0.000000 -0.000000 
0.000000 0.000000 -0.308745 -0.000000 0.000000 -0.000000 
0.000000 0.000000 -0.037363 -0.000000 0.000000 -0.000000 
0.000000 0.000000 0.379401 -0.000000 0.000000 -0.000000 
0.000000 0.000000 0.912471 -0.000000 0.000000 -0.000000 
0.000000 0.000000 1.532771 -0.000000 0.000000 -0.000000 
0.000000 0.000000 2.211223 -0.000000 0.000000 -0.000000 
0.000000 0.000000 2.918753 -0.000000 0.000000 -0.000000 
0.000000 0.000000 3.626282 -0.000000 0.000000 -0.000000 
0.000000 0.000000 4.304735 -0.000000 0.000000 -0.000000 
0.000000 0.000000 4.925036 -0.000000 0.000000 -0.000000 
0.000000 0.000000 5.458105 -0.000000 0.000000 -0.000000 
0.000000 0.000000 5.874868 -0.000000 0.000000 -0.000000 
0.000000 0.000000 6.146251 -0.000000 0.000000 -0.000000 
0.000000 0.000000 6.243173 -0.000000 0.000000 -0.000000 
